<?xml version="1.0" encoding="utf-8"?>
<!-- Generator: Adobe Illustrator 26.0.2, SVG Export Plug-In . SVG Version: 6.00 Build 0)  -->
<svg version="1.1" id="Layer_1" xmlns="http://www.w3.org/2000/svg" xmlns:xlink="http://www.w3.org/1999/xlink" x="0px" y="0px"
	 viewBox="0 0 1929.4 786.1" style="enable-background:new 0 0 1929.4 786.1;" xml:space="preserve">
<style type="text/css">
	.st0{fill:#062346;}
	.st1{fill:#00B9FE;}
</style>
<g>
	<g>
		<path class="st0" d="M966.9,128.3c-87.9,0-175.9,0-263.8,0.1c-3.4,0-4.3-0.9-4.3-4.3c0.1-40,0.1-80,0-120c0-3,0.4-4.2,3.9-4.2
			c176.4,0.1,352.8,0.1,529.2,0c3.1,0,3.9,0.6,3.9,3.8c-0.1,40.2-0.1,80.5,0,120.7c0,3.2-0.9,3.8-3.9,3.8
			C1143.5,128.3,1055.2,128.3,966.9,128.3z"/>
		<path class="st0" d="M966.9,494c-87.9,0-175.9,0-263.8,0.1c-3.3,0-4.3-0.8-4.3-4.2c0.1-40,0.1-80,0-120c0-3,0.3-4.2,3.9-4.2
			c176.4,0.1,352.8,0.1,529.2,0c3.1,0,3.9,0.7,3.9,3.8c-0.1,40.2-0.1,80.5,0,120.7c0,3.2-0.9,3.8-3.9,3.8
			C1143.5,494,1055.2,494,966.9,494z"/>
		<path class="st1" d="M815.5,181.8c38.8,0,77.7,0,116.6-0.1c3.4,0,4.6,0.6,4.6,4.4c-0.2,40-0.2,80,0,120c0,3.4-1,4-4.2,4
			c-78.2-0.1-156.4-0.1-234.6,0c-3.5,0-4.2-1-4.2-4.4c0.1-40,0.1-80,0-120c0-3.4,1-4.1,4.2-4C737,181.8,776.2,181.9,815.5,181.8z"/>
		<path class="st1" d="M1113.9,310c-39.1,0-78.2,0-117.3,0.1c-3.1,0-3.9-0.8-3.9-3.9c0.1-40.2,0.1-80.5,0-120.7
			c0-2.9,0.6-3.8,3.7-3.8c78.3,0.1,156.7,0.1,235,0c3,0,3.7,0.8,3.7,3.7c-0.1,40.2-0.1,80.5,0,120.7c0,3.1-0.7,3.9-3.9,3.9
			C1192.1,310,1153,310,1113.9,310z"/>
	</g>
	<g>
		<path class="st0" d="M1555.9,786.1c0-1.6-1.4-2.2-2.3-3.2c-36.4-38.7-72.8-77.3-109.2-116c-1.8-1.9-3.3-4-5.4-6.6
			c0.2,3.3,0.6,6,0.6,8.7c0,35.7,0,71.5,0.1,107.2c0,2.8-0.5,4-3.6,3.8c-4.2-0.3-8.5-0.1-12.7,0c-1.8,0-2.6-0.5-2.3-2.3
			c0-0.5,0-1,0-1.5V616.4l118.2,128.2c0.7-2.2-0.3-4.5-0.3-6.9c0-37.1,0-74.2,0-111.3c0-2.4,0.8-3,3-2.9c4.1,0.2,8.2,0.2,12.4,0
			c2.7-0.1,3.3,0.7,3.3,3.3c-0.1,14.7,0,29.5-0.1,44.2c0,38.4,0,76.7-0.1,115.1L1555.9,786.1z"/>
		<path class="st0" d="M519.2,780c23.1-54.6,46.1-108.8,69.3-163.6c5.5,13,10.8,25.4,16.1,37.9c17.1,40.5,34.2,80.9,51.3,121.4
			c1.8,4.2,1.8,4.2-2.8,4.2c-3.6,0-7.2-0.2-10.9,0.1c-2.4,0.2-3.5-0.8-4.4-2.9c-7.8-18.6-15.7-37.2-23.4-55.8c-1-2.4-2-3.4-4.8-3.4
			c-14.1,0.2-28.2,0.2-42.4,0c-2.5,0-3.7,0.7-4.7,3c-7.8,18.7-15.8,37.4-23.6,56.1c-0.9,2.2-1.9,3-4.3,2.9
			C529.7,779.8,524.7,780,519.2,780z M588.2,657.8c-4.1,15.1-11.1,28.4-16.7,42.5h33.6C599.9,686.1,592.9,672.9,588.2,657.8
			L588.2,657.8z"/>
		<path class="st0" d="M294.1,616.4L363.3,780c-6,0-11.5,0-17,0c-2.2,0-2.2-1.7-2.7-3c-7.8-18.3-15.6-36.7-23.2-55.1
			c-1.2-2.9-2.5-4.1-5.9-4.1c-13.7,0.2-27.5,0.2-41.2,0c-2.8,0-4.1,0.8-5.2,3.4c-7.7,18.5-15.5,37-23.2,55.5c-1,2.4-2.1,3.5-4.9,3.3
			c-3.7-0.2-7.5-0.2-11.2,0c-3,0.2-3.9-0.3-2.5-3.5c6.1-13.9,11.9-27.9,17.8-41.9C260.6,695.5,277.2,656.4,294.1,616.4z
			 M310.9,700.5c-5.3-14.5-12.3-27.7-16.9-42.2c-1.8,5-3.3,9.7-5.1,14.3c-3.4,8.4-7.1,16.7-10.6,25.1c-0.4,1-2,2.7,0.9,2.7
			C289.6,700.5,300.1,700.5,310.9,700.5z"/>
		<path class="st0" d="M1316.5,616.6c7,16.6,13.9,33,20.9,49.4c15.5,36.7,31.1,73.3,46.6,110c1.6,3.9,1.6,3.9-2.7,3.9
			c-3.6,0-7.3-0.2-10.9,0.1c-2.8,0.2-3.9-0.9-4.9-3.3c-7.7-18.5-15.6-36.9-23.3-55.5c-1-2.4-2.1-3.4-4.8-3.4
			c-14.1,0.2-28.2,0.1-42.3,0c-2.5,0-3.7,0.7-4.7,3c-7.8,18.7-15.8,37.4-23.6,56.1c-0.9,2.2-1.9,3.1-4.3,3c-4.1-0.2-8.2-0.2-12.4,0
			c-2.6,0.1-3-0.6-1.9-2.9c5.4-12.5,10.6-25,15.9-37.5c17.1-40.3,34.2-80.7,51.2-121C1315.7,618,1316,617.5,1316.5,616.6z
			 M1299.6,700.3h33.6c-5.3-14.2-12.3-27.5-16.9-42.3C1312.1,672.9,1305.1,686.2,1299.6,700.3z"/>
		<path class="st0" d="M855.9,622.6c15.2-0.2,27.9,5.4,39,14.8c1.3,1.1,1.8,1.8,0.5,3.3c-2.7,3.3-5.3,6.6-7.8,10.1
			c-1.2,1.7-2,1.1-3.2,0.1c-8.9-7.6-19.1-10.8-30.8-10.2c-11,0.6-19.3,7.8-21.6,19.3c-2.2,10.7,2,19.4,12.4,24.1
			c8.3,3.7,17,6.6,25.3,10.1c10.9,4.7,21,10.6,27.7,20.8c16.4,24.6,3.6,58.2-25.5,64.9c-24.9,5.8-45.9-2.7-63.2-20.9
			c-1.9-2-1.8-3.3,0.3-5.1c2.6-2.3,5.1-4.8,7.4-7.4c1.5-1.6,2.3-1.5,3.8,0c6.5,6.5,13.6,12.2,22.4,15.1c12.3,4.1,24.3,4,34.7-4.6
			c13.1-10.9,11.1-31.1-3.6-41c-6.5-4.4-13.8-6.8-21.1-9.4c-9-3.2-18.2-6.3-25.7-12.7c-13.6-11.6-16.6-26.4-12.3-43.1
			c3.7-14.4,16.8-25.5,31.8-27.4C849.7,622.8,852.8,622.6,855.9,622.6z"/>
		<path class="st0" d="M1043.9,622.6c15.1-0.2,27.9,5.6,39.3,15.1c1.1,0.9,1.2,1.5,0.3,2.7c-2.7,3.3-5.3,6.6-7.8,10
			c-1.2,1.7-2,1.5-3.5,0.3c-8.5-7.3-19.6-11-30.8-10.2c-10.5,0.5-19.3,8-21.4,18.3c-2.4,11.5,1.5,20.2,12,25
			c7.7,3.5,15.7,6.2,23.6,9.4c7.6,2.9,14.7,7,21,12.1c14,11.8,18.8,26.9,14.2,44.4s-17,28-34.4,30.9c-23.8,3.9-43.9-4.3-60.1-22
			c-1.5-1.6-1.6-2.7,0.2-4.2c2.7-2.4,5.3-5,7.7-7.7c1.5-1.7,2.3-1.7,4-0.1c6.5,6.5,13.7,12.1,22.5,15.1c10.2,3.5,20.5,3.7,30.1-1.6
			c17.3-9.5,17.7-32.9,0.8-44.2c-6.5-4.3-13.9-6.7-21.1-9.3c-8.7-3.1-17.2-6.3-24.8-12c-22.6-16.8-19.1-57.4,8.9-68.3
			C1030.8,623.9,1037.3,622.7,1043.9,622.6z"/>
		<path class="st0" d="M731.1,622.6c14.7,0.2,27.4,5.6,38.5,15.1c1.1,0.9,1.3,1.5,0.4,2.7c-2.7,3.4-5.4,6.8-8,10.4
			c-1.2,1.7-2,1-3.2,0c-8.5-7.3-19.6-11-30.8-10.2c-10.5,0.4-19.3,8-21.4,18.2c-2.5,11.8,1.4,20.3,12.2,25.1c8.2,3.7,16.7,6.5,25,10
			c12.8,5.4,24.1,12.6,30.8,25.4c12.2,23.5-1,52.8-27.2,60.3c-21,6-50.6-3.5-64.1-20.6c-1.6-2.1-2.2-3.4,0.2-5.3
			c2.7-2.3,5.1-4.7,7.4-7.4c1.5-1.7,2.3-1.3,3.7,0.1c6.5,6.5,13.6,12.2,22.5,15.1c12.2,4.1,24.2,4,34.4-4.4
			c13.6-11.2,11.6-31.5-3.7-41.5c-6.4-4.2-13.6-6.6-20.8-9.2c-8.7-3.1-17.4-6.1-24.8-12c-12.8-10.3-17-23.8-14.1-39.4
			C692.1,634.2,708,622.5,731.1,622.6z"/>
		<path class="st0" d="M1633.1,710.4c0-21.9-0.1-43.7,0.1-65.6c0-3-0.8-3.7-3.7-3.7c-15.2,0.2-30.5,0-45.7,0.2
			c-2.9,0-3.6-0.8-3.5-3.6c0.2-3.7,0.2-7.5,0-11.2c-0.1-2.5,0.8-3.1,3.2-3.1c14.7,0.1,29.5,0,44.2,0c24.1,0,48.2,0.1,72.3-0.1
			c3.2,0,4.1,0.9,3.8,4c-0.2,3.6-0.2,7.2,0,10.9c0.2,2.5-0.8,3.1-3.2,3.1c-15-0.1-30,0-45-0.1c-3.2,0-4.2,0.6-4.1,4
			c0.1,43.6,0,87.2,0.2,130.8c0,3.3-0.8,4.4-4.1,4.1c-3.7-0.3-7.5-0.3-11.2,0c-2.6,0.2-3.4-0.6-3.3-3.3c0.1-13.4,0.1-26.7,0.1-40.1
			L1633.1,710.4z"/>
		<path class="st0" d="M1181.2,711.1c0,21.7,0,43.5,0.1,65.2c0,2.9-0.6,4-3.7,3.7c-3.9-0.2-7.7-0.2-11.6,0c-2.7,0.2-3.3-0.7-3.3-3.3
			c0.1-12.9,0-25.7,0-38.6c0-31-0.1-62,0.1-92.9c0-3.4-1-4-4.2-4c-15.1,0.2-30.2,0-45.3,0.2c-2.9,0-3.6-0.8-3.5-3.6
			c0.2-3.7,0.2-7.5,0-11.2c-0.2-2.6,0.8-3.1,3.2-3.1c11.2,0.1,22.5,0,33.7,0c27.6,0,55.2,0.1,82.8-0.1c3.4,0,4.3,1,4,4.2
			c-0.2,3.6-0.2,7.2,0,10.9c0.1,2.4-0.7,2.9-3,2.9c-15-0.1-30,0.1-45-0.1c-3.5,0-4.6,0.6-4.6,4.4
			C1181.4,667.4,1181.2,689.2,1181.2,711.1z"/>
		<path class="st0" d="M398.6,701.7c0-24.8,0-49.7-0.1-74.5c0-2.8,0.5-4,3.6-3.8c4.1,0.2,8.2,0.2,12.4,0c2.2-0.1,2.9,0.7,2.7,2.8
			c-0.2,1.7,0,3.5,0,5.2c0,48.2,0,96.4,0.1,144.6c0,3-0.6,4.2-3.8,4c-3.9-0.3-7.7-0.3-11.6,0c-2.7,0.2-3.3-0.8-3.3-3.3
			C398.6,751.7,398.6,726.7,398.6,701.7z"/>
		<path class="st0" d="M944.3,701.8c0-24.8,0-49.7,0-74.5c0-2.8,0.5-4,3.6-3.8c4.1,0.2,8.2,0.2,12.3,0c2.2-0.1,3,0.7,2.7,2.8
			c0,0.5,0,1,0,1.5c0,49.3,0,98.7,0.1,148c0,3.2-0.5,4.7-4.2,4.4c-3.8-0.3-7.5-0.3-11.3,0c-2.7,0.2-3.3-0.7-3.3-3.3
			C944.4,751.7,944.3,726.7,944.3,701.8z"/>
	</g>
</g>
</svg>
